<?xml version="1.0" encoding="UTF-8"?>
<svg width="20px" height="20px" version="1.1" viewBox="0 0 700 700" xmlns="http://www.w3.org/2000/svg">
 <g>
  <path d="m116.67 140h466.67v93.332h-466.67z"/>
  <path d="m140 280h186.67v233.33h-186.67z"/>
  <path d="m373.33 280h186.67v233.33h-186.67z"/>
  <path d="m247.33 140c-2.332-2.332-7-4.668-7-7-4.6641-4.668-7-9.332-7-16.332s2.332-11.668 7-16.332c2.3359-4.668 9.3359-7.0039 16.336-7.0039s11.668 2.332 16.332 7c7 7 18.668 23.336 28 39.668h98c11.668-16.332 21-32.668 30.332-39.668 2.3359-4.6641 9.3359-7 14-7 7 0 11.668 2.332 16.332 7 9.332 9.332 9.332 23.332 0 32.668-2.332 2.332-4.668 4.668-7 7h58.332c9.332-25.668 4.668-53.668-16.332-72.332-25.668-25.668-72.332-25.668-98 0-9.332 9.332-28 35-44.332 63-16.332-28-35-53.668-44.332-63-28-28-74.668-28-102.67 0-11.664 11.664-18.664 30.332-18.664 49 0 7 0 16.332 2.332 23.332z"/>
 </g>
</svg>